HIERARCHY
ROOT Hip
{
  OFFSET 0.0 0.0 0.0
  CHANNELS 6 Xposition Yposition Zposition Xrotation Yrotation Zrotation
  JOINT LowerSpine
  {
    OFFSET 0.0 0.061367 -0.03653
    CHANNELS 3 Xrotation Yrotation Zrotation
    JOINT MiddleSpine
    {
      OFFSET 0.0 0.056002 0.002633
      CHANNELS 3 Xrotation Yrotation Zrotation
      JOINT Chest
      {
        OFFSET 0.0 0.069296 -0.013882
        CHANNELS 3 Xrotation Yrotation Zrotation
        JOINT Neck
        {
          OFFSET 0.0 0.156156 -0.002923
          CHANNELS 3 Xrotation Yrotation Zrotation
          JOINT Head
          {
            OFFSET 0.0 0.088183 0.023986
            CHANNELS 3 Xrotation Yrotation Zrotation
            End Site
            {
              OFFSET 1e-06 0.123215 0.003678
            }
          }
        }
        JOINT LClavicle
        {
          OFFSET 0.014189 0.150698 0.046467
          CHANNELS 3 Xrotation Yrotation Zrotation
          JOINT LShoulder
          {
            OFFSET 0.082893 0.021616 -0.034976
            CHANNELS 3 Xrotation Yrotation Zrotation
            JOINT LForearm
            {
              OFFSET 0.195645 -0.000695 -0.001695
              CHANNELS 3 Xrotation Yrotation Zrotation
              JOINT LHand
              {
                OFFSET 0.163209 0.000474 -0.000977
                CHANNELS 3 Xrotation Yrotation Zrotation
                End Site
                {
                  OFFSET 0.0 0.006864 0.0
                }
              }
            }
          }
        }
        JOINT RClavicle
        {
          OFFSET -0.014189 0.150698 0.046467
          CHANNELS 3 Xrotation Yrotation Zrotation
          JOINT RShoulder
          {
            OFFSET -0.082908 0.021619 -0.034982
            CHANNELS 3 Xrotation Yrotation Zrotation
            JOINT RForearm
            {
              OFFSET -0.195645 -0.000695 -0.001695
              CHANNELS 3 Xrotation Yrotation Zrotation
              JOINT RHand
              {
                OFFSET -0.163209 0.000474 -0.000977
                CHANNELS 3 Xrotation Yrotation Zrotation
                End Site
                {
                  OFFSET 0.0 0.006864 0.0
                }
              }
            }
          }
        }
      }
    }
  }
  JOINT RThigh
  {
    OFFSET -0.072558 0.02774 -0.005953
    CHANNELS 3 Xrotation Yrotation Zrotation
    JOINT RShin
    {
      OFFSET -0.005253 -0.285537 0.0
      CHANNELS 3 Xrotation Yrotation Zrotation
      JOINT RFoot
      {
        OFFSET 0.0 -0.28038 0.0
        CHANNELS 3 Xrotation Yrotation Zrotation
        JOINT RToe
        {
          OFFSET 0.0 -0.030816 0.064441
          CHANNELS 3 Xrotation Yrotation Zrotation
          End Site
          {
            OFFSET 0.0 0.0 0.043231
          }
        }
      }
    }
  }
  JOINT LThigh
  {
    OFFSET 0.072557 0.027741 -0.005953
    CHANNELS 3 Xrotation Yrotation Zrotation
    JOINT LShin
    {
      OFFSET 0.005253 -0.285539 0.0
      CHANNELS 3 Xrotation Yrotation Zrotation
      JOINT LFoot
      {
        OFFSET 0.0 -0.28038 0.0
        CHANNELS 3 Xrotation Yrotation Zrotation
        JOINT LToe
        {
          OFFSET 0.0 -0.030816 0.064441
          CHANNELS 3 Xrotation Yrotation Zrotation
          End Site
          {
            OFFSET 0.0 0.0 0.043231
          }
        }
      }
    }
  }
}
MOTION
Frames: 17
Frame Time: 0.03333333333333333
-0.054938 0.415407 -0.115155 48.230614 6.350194 -0.234992 -2.986944 -0.559068 1.075405 0.282655 0.729825 -0.102596 3.468127 0.717899 -4.297805 -1.93309 0.243594 -0.727296 0.051172 -0.38323 -0.069654 3.065334 0.982539 -20.428867 25.47773 -29.085098 -43.379578 16.701515 -55.484993 -1.374005 0.14174 0.221614 -0.129057 2.123563 -2.76875 18.712215 16.673908 38.756985 62.986935 5.168943 38.194649 5.23088 -0.307453 -0.107858 -0.049187 -103.823647 3.042207 8.233517 79.335884 -2.144655 -2.054163 -6.24914 -2.098665 -1.789808 -0.107264 0.319076 0.147829 -102.554031 -7.332247 8.953966 82.833267 5.114194 -12.581261 -1.329493 1.032887 1.175772 0.136099 -0.212694 -0.111804 
-0.054206 0.414886 -0.116732 47.966812 6.3377 -0.170316 -2.938949 -0.555931 1.055905 0.267554 0.736161 -0.097434 3.384651 0.755296 -4.249061 -1.911857 0.248485 -0.725559 0.050712 -0.379537 -0.068716 3.029924 0.985715 -20.338356 25.488766 -28.898272 -43.702587 16.775421 -55.557484 -1.37264 0.141423 0.221338 -0.128774 2.107239 -2.755674 18.668839 16.599709 38.801117 63.062843 5.188293 38.000362 5.197585 -0.299839 -0.111849 -0.048406 -103.675117 3.094083 8.142225 79.382271 -2.151059 -1.987961 -6.265161 -2.094584 -1.784658 -0.105684 0.318573 0.146855 -102.411522 -7.227479 8.905919 82.853531 5.118132 -12.509015 -1.35148 1.020897 1.156207 0.135986 -0.210886 -0.111056 
-0.05338 0.413942 -0.118734 47.720642 6.334839 -0.154688 -2.901385 -0.552586 1.043712 0.25531 0.738147 -0.092316 3.321923 0.801947 -4.198731 -1.897059 0.253635 -0.726257 0.050441 -0.378115 -0.067966 3.001355 0.98308 -20.282616 25.490501 -28.672577 -43.99741 16.800165 -55.565769 -1.360307 0.141651 0.221934 -0.129091 2.093772 -2.74372 18.644598 16.530849 38.756798 63.124908 5.15686 37.88855 5.165055 -0.295389 -0.115318 -0.048081 -103.56266 3.150071 8.073053 79.535324 -2.146759 -1.937193 -6.289516 -2.096976 -1.785961 -0.105531 0.318141 0.14666 -102.327011 -7.149602 8.861312 82.965302 5.097322 -12.451901 -1.371343 1.012855 1.14412 0.136438 -0.210218 -0.110825 
-0.052634 0.412828 -0.12074 47.590416 6.373459 -0.205098 -2.87656 -0.54841 1.039442 0.245493 0.735459 -0.089926 3.283739 0.854635 -4.149956 -1.889515 0.258192 -0.729434 0.050305 -0.378261 -0.067379 2.98088 0.97569 -20.260406 25.493933 -28.449394 -44.212132 16.793543 -55.514442 -1.343142 0.142284 0.223118 -0.129613 2.085494 -2.733675 18.641567 16.464462 38.646935 63.158546 5.079685 37.859787 5.144162 -0.293629 -0.117985 -0.048071 -103.519394 3.209113 8.023151 79.748085 -2.132918 -1.903439 -6.32138 -2.105553 -1.792759 -0.10653 0.317925 0.147245 -102.337364 -7.100088 8.80696 83.13578 5.067082 -12.419238 -1.389966 1.008657 1.139118 0.137155 -0.210584 -0.111057 
-0.052066 0.411883 -0.122393 47.659882 6.48012 -0.334494 -2.866088 -0.542877 1.043235 0.238188 0.729207 -0.092123 3.273374 0.908747 -4.105553 -1.888864 0.261591 -0.734204 0.0503 -0.379515 -0.066969 2.969538 0.963817 -20.268175 25.497185 -28.280333 -44.307896 16.776096 -55.413918 -1.325622 0.143125 0.224587 -0.130097 2.083248 -2.727319 18.660368 16.398224 38.498005 63.157188 4.971228 37.909103 5.142097 -0.29434 -0.119503 -0.048304 -103.561684 3.270446 7.99031 79.948647 -2.110026 -1.886223 -6.358062 -2.118807 -1.803517 -0.108272 0.317994 0.148481 -102.454163 -7.072302 8.732126 83.29966 5.044425 -12.416314 -1.407519 1.008075 1.14058 0.137899 -0.211904 -0.111733 
-0.051777 0.411509 -0.123438 47.987522 6.674462 -0.544836 -2.868271 -0.535725 1.051187 0.23296 0.723431 -0.101552 3.284822 0.956588 -4.06528 -1.891701 0.262831 -0.740273 0.050359 -0.380168 -0.066707 2.967175 0.951865 -20.299484 25.491714 -28.195204 -44.26498 16.748959 -55.292141 -1.312534 0.143828 0.225623 -0.130168 2.087948 -2.732231 18.701351 16.320719 38.334057 63.123913 4.844607 38.032471 5.165661 -0.296363 -0.118764 -0.048636 -103.683823 3.334795 7.970217 80.053154 -2.078477 -1.87993 -6.396462 -2.134631 -1.815397 -0.109095 0.317792 0.149718 -102.671227 -7.049249 8.62768 83.39167 5.0521 -12.442628 -1.424201 1.012361 1.144921 0.138446 -0.213418 -0.112408 
-0.05182 0.412183 -0.123611 48.627239 6.94376 -0.805334 -2.87742 -0.526097 1.06056 0.229418 0.718617 -0.119094 3.314123 0.989141 -4.030892 -1.893493 0.263366 -0.746575 0.050684 -0.379228 -0.066723 2.970559 0.94344 -20.3347 25.4793 -28.236101 -44.090675 16.762383 -55.188805 -1.307944 0.144229 0.225909 -0.129584 2.09873 -2.749538 18.749594 16.218327 38.237503 63.064381 4.737905 38.176048 5.209853 -0.297671 -0.116496 -0.048792 -103.859955 3.389145 7.945632 79.956947 -2.052462 -1.869625 -6.432897 -2.147306 -1.824989 -0.107706 0.317781 0.150568 -102.952782 -7.008089 8.494093 83.316246 5.117011 -12.487536 -1.444266 1.022119 1.149547 0.138643 -0.214587 -0.112793 
-0.052354 0.414497 -0.122625 49.643803 7.321676 -1.082405 -2.886744 -0.510848 1.068864 0.229193 0.715982 -0.150597 3.354558 0.992178 -4.024095 -1.887462 0.262762 -0.750183 0.051087 -0.375273 -0.066954 2.971542 0.937084 -20.336664 25.47518 -28.523872 -43.742023 16.907349 -55.122772 -1.325613 0.143938 0.22514 -0.128055 2.111869 -2.772727 18.785717 16.06151 38.350956 62.978313 4.71577 38.220207 5.271783 -0.295998 -0.113572 -0.048499 -104.054146 3.458197 7.891452 79.537468 -2.033365 -1.846278 -6.460109 -2.15059 -1.827712 -0.103453 0.317724 0.150538 -103.240509 -6.900141 8.321991 82.926468 5.278349 -12.544847 -1.477007 1.035546 1.149547 0.138126 -0.214651 -0.112655 
-0.05331 0.419346 -0.120084 51.196522 7.825769 -1.427241 -2.886429 -0.485458 1.071656 0.247036 0.722451 -0.217935 3.459754 0.95158 -4.081059 -1.851056 0.267341 -0.74633 0.050719 -0.365441 -0.067477 2.960753 0.94512 -20.305557 25.424952 -29.210728 -43.145302 17.244675 -55.065826 -1.398578 0.14121 0.22047 -0.12543 2.132031 -2.803179 18.800198 15.723412 38.894604 62.870609 4.822433 38.033115 5.352838 -0.286306 -0.111167 -0.047529 -104.247276 3.570113 7.738825 78.625679 -2.046488 -1.776718 -6.496666 -2.143444 -1.820515 -0.096455 0.313422 0.148468 -103.480782 -6.661265 8.072618 82.004974 5.593912 -12.610847 -1.523762 1.056934 1.134086 0.134562 -0.209538 -0.109426 
-0.055097 0.426852 -0.115857 53.238304 8.526395 -1.836503 -2.862528 -0.448904 1.064841 0.283537 0.738678 -0.314323 3.612558 0.873569 -4.212355 -1.791578 0.273696 -0.732417 0.050206 -0.351259 -0.068485 2.933264 0.949199 -20.175945 25.350163 -30.336016 -42.318363 17.806248 -55.046684 -1.512284 0.137523 0.214769 -0.122262 2.146741 -2.831478 18.767231 15.17494 39.968452 62.762573 5.118474 37.537083 5.435552 -0.269437 -0.110891 -0.046002 -104.362488 3.732481 7.488019 77.124763 -2.077668 -1.664044 -6.503052 -2.115489 -1.798747 -0.086875 0.310185 0.145015 -103.583496 -6.278031 7.787525 80.480331 6.072703 -12.69089 -1.584004 1.072183 1.099976 0.130626 -0.202295 -0.105171 
-0.057225 0.436363 -0.110839 55.236061 9.327444 -2.279559 -2.778195 -0.416802 1.038172 0.317792 0.785925 -0.405765 3.719599 0.811248 -4.371878 -1.693908 0.292255 -0.711472 0.050416 -0.337718 -0.070496 2.880657 0.931816 -19.932249 25.024723 -31.708931 -41.771751 18.339426 -54.865742 -1.560774 0.135255 0.211769 -0.121117 2.131285 -2.87213 18.649824 14.35062 41.286861 62.922081 5.506935 36.687298 5.430217 -0.24662 -0.115416 -0.044783 -104.092255 3.925709 7.215234 75.040001 -2.133555 -1.532572 -6.451312 -2.041187 -1.759734 -0.076179 0.313648 0.142203 -103.345787 -5.757787 7.396549 78.505859 6.582303 -12.651694 -1.684537 1.069569 1.049237 0.128486 -0.195836 -0.100665 
-0.058903 0.447418 -0.106817 57.026901 9.946793 -2.68507 -2.630263 -0.38298 0.977471 0.329399 0.829654 -0.48555 3.715366 0.746009 -4.497959 -1.541656 0.311722 -0.678787 0.04939 -0.315216 -0.070924 2.791799 0.931176 -19.543608 24.599089 -33.183739 -41.369087 18.885077 -54.580845 -1.609742 0.131021 0.206285 -0.117903 2.090043 -2.878384 18.438313 13.289927 42.877266 63.237087 6.132084 35.536671 5.371542 -0.212081 -0.120739 -0.041995 -103.518677 4.053957 6.924086 72.302147 -2.230534 -1.330659 -6.341763 -1.938359 -1.69446 -0.069045 0.314528 0.135748 -102.802193 -5.05478 6.955097 75.892525 7.274252 -12.541415 -1.782742 1.042843 0.973911 0.123692 -0.185567 -0.094466 
-0.058899 0.458808 -0.104563 57.558914 10.22745 -2.974794 -2.443359 -0.338948 0.904158 0.364504 0.859725 -0.540921 3.828698 0.717764 -4.505105 -1.370763 0.320323 -0.649988 0.047448 -0.28815 -0.06917 2.681641 0.928723 -19.142982 24.047966 -34.322739 -41.528423 18.907217 -54.406265 -1.584442 0.126389 0.20181 -0.114802 2.014317 -2.802056 18.167751 12.086099 44.312344 63.748108 6.312983 34.62109 5.337018 -0.173204 -0.125056 -0.038336 -102.068192 3.958214 6.669186 69.168106 -2.415215 -1.156102 -6.068717 -1.815035 -1.602743 -0.058781 0.313411 0.124304 -101.050003 -4.033992 6.590328 72.970146 8.024255 -12.370019 -1.792833 0.977692 0.878302 0.121579 -0.175827 -0.08794 
-0.057896 0.470665 -0.103439 57.153362 10.356148 -3.085932 -2.182381 -0.302081 0.805959 0.407131 0.884512 -0.583932 3.937742 0.698896 -4.573957 -1.183323 0.326708 -0.623486 0.045855 -0.26757 -0.068364 2.567582 0.920703 -18.608044 23.410198 -35.223431 -42.075115 18.826204 -54.460617 -1.553571 0.124468 0.201759 -0.115742 1.937274 -2.722636 17.856869 10.54057 45.850224 64.571617 6.375683 33.438702 5.219293 -0.132429 -0.134648 -0.034126 -99.811356 3.696118 6.244058 65.67305 -2.633736 -0.934821 -5.672727 -1.681198 -1.498641 -0.049123 0.319026 0.113669 -98.198318 -2.839956 6.370718 69.576019 8.759716 -12.149172 -1.779041 0.902054 0.767977 0.120584 -0.168157 -0.082987 
-0.05617 0.483941 -0.102687 56.381592 10.363356 -3.136319 -1.889449 -0.277896 0.694863 0.419723 0.914391 -0.610967 3.843512 0.73058 -4.615237 -0.987961 0.336277 -0.594383 0.044082 -0.248694 -0.066633 2.4223 0.912099 -18.012154 22.647787 -35.925907 -43.074139 18.658674 -54.517193 -1.496012 0.122754 0.202121 -0.117262 1.832779 -2.618356 17.531555 8.787569 47.194542 65.694511 6.38265 31.962339 5.054348 -0.092405 -0.144649 -0.029405 -96.715141 3.350968 5.718386 61.209827 -2.886088 -0.70222 -5.241324 -1.528687 -1.382445 -0.04122 0.320854 0.102964 -94.463707 -1.473972 6.066441 65.275093 9.489753 -11.791035 -1.785009 0.813899 0.642857 0.119173 -0.160495 -0.078553 
-0.053534 0.49856 -0.102448 55.031334 10.187191 -3.083124 -1.578748 -0.260182 0.605424 0.427315 0.97083 -0.635086 3.526341 0.888196 -4.727479 -0.779308 0.353381 -0.574272 0.043179 -0.233439 -0.064075 2.235853 0.894161 -17.325968 21.856792 -36.344189 -44.330231 18.511236 -54.745663 -1.337758 0.120902 0.202534 -0.117526 1.668576 -2.518993 17.111614 6.801136 48.41716 67.09269 6.411322 30.372669 4.865736 -0.061529 -0.151036 -0.023843 -92.460938 3.033858 5.108733 55.663963 -3.060747 -0.475273 -4.796708 -1.36325 -1.263579 -0.038422 0.32112 0.094128 -89.416138 0.289394 5.68509 59.662487 10.334687 -11.332356 -1.828849 0.719499 0.520822 0.12013 -0.154121 -0.075445 
-0.049625 0.513481 -0.100093 52.666462 9.848955 -2.876069 -1.254503 -0.241887 0.517276 0.45372 1.039157 -0.652602 3.315801 1.079399 -4.884272 -0.548681 0.377636 -0.549842 0.041445 -0.21779 -0.06082 2.048713 0.901542 -16.665207 20.924322 -36.47501 -46.021454 18.066668 -55.156685 -1.199588 0.117269 0.199446 -0.115698 1.494225 -2.448103 16.7285 4.704444 49.358463 68.717422 6.302542 28.804401 4.675081 -0.030543 -0.151188 -0.017121 -86.325157 2.742328 4.523776 49.369579 -3.187235 -0.266756 -4.351407 -1.187765 -1.135123 -0.032909 0.315705 0.081826 -82.371094 2.371283 5.185004 52.878929 11.217516 -10.758552 -1.896734 0.630698 0.397245 0.118536 -0.145737 -0.069988 
